<!--?xml version="1.0" encoding="utf-8"?-->
<!-- Svg Vector Icons : http://www.onlinewebfonts.com/icon -->

<svg version="1.1" xmlns="http://www.w3.org/2000/svg" xmlns:xlink="http://www.w3.org/1999/xlink" x="0px" y="0px" viewBox="0 0 256 256" enable-background="new 0 0 256 256" xml:space="preserve">
<metadata> Svg Vector Icons : http://www.onlinewebfonts.com/icon </metadata>
<g><g><path fill="#aaacae" data-title="Layer 0" xs="0" d="M246,92.3v125.5c0,10.8-8.7,19.5-19.5,19.5h-19.5c-10.8,0-19.5-8.7-19.5-19.5v-6.2H68.4v6.2c0,10.8-8.7,19.5-19.5,19.5H29.5c-10.8,0-19.5-8.7-19.5-19.5V92.3c0-10.8,8.7-19.5,19.5-19.5h19.5c10.8,0,19.5,8.7,19.5,19.5v57.3h119.2V92.3c0-10.8,8.7-19.5,19.5-19.5h19.5C237.3,72.9,246,81.6,246,92.3L246,92.3z M76.5,92.3v49.1h102.9V92.3c0-10.8,16.9-27.6,27.6-27.6h15.1V36.6c0-9.9-8.1-18-18-18H52c-9.9,0-18,8-18,18v28.1h14.9C59.7,64.7,76.5,81.6,76.5,92.3L76.5,92.3z"/></g></g>
</svg>